HIERARCHY
ROOT Hips
{
	OFFSET 0.00000 0.00000 0.00000
	CHANNELS 6 Xposition Yposition Zposition Zrotation Yrotation Xrotation 
	JOINT LHipJoint
	{
		OFFSET 0 0 0
		CHANNELS 3 Zrotation Yrotation Xrotation
		JOINT LeftHip
		{
			OFFSET 1.83091 -1.65485 0.80491
			CHANNELS 3 Zrotation Yrotation Xrotation
			JOINT LeftKnee
			{
				OFFSET 2.11983 -5.82419 0.00000
				CHANNELS 3 Zrotation Yrotation Xrotation
				JOINT LeftAnkle
				{
					OFFSET 2.66794 -7.33011 0.00000
					CHANNELS 3 Zrotation Yrotation Xrotation
					JOINT LeftToe
					{
						OFFSET 0.15587 -0.42826 1.82520
						CHANNELS 3 Zrotation Yrotation Xrotation
						End Site
						{
							OFFSET 0.00000 -0.00000 0.94802
						}
					}
				}
			}
		}
	}
	JOINT RHipJoint
	{
		OFFSET 0 0 0
		CHANNELS 3 Zrotation Yrotation Xrotation
		JOINT RightHip
		{
			OFFSET -1.96593 -1.65485 0.80491
			CHANNELS 3 Zrotation Yrotation Xrotation
			JOINT RightKnee
			{
				OFFSET -2.00526 -5.50940 0.00000
				CHANNELS 3 Zrotation Yrotation Xrotation
				JOINT RightAnkle
				{
					OFFSET -2.64167 -7.25794 0.00000
					CHANNELS 3 Zrotation Yrotation Xrotation
					JOINT RightToe
					{
						OFFSET -0.19578 -0.53789 1.94104
						CHANNELS 3 Zrotation Yrotation Xrotation
						End Site
						{
							OFFSET -0.00000 -0.00000 1.01373
						}
					}
				}
			}
		}
	}
	JOINT lowerback
	{
		OFFSET 0 0 0
		CHANNELS 3 Zrotation Yrotation Xrotation
		JOINT Chest
		{
			OFFSET 0.01139 2.01356 -0.24266
			CHANNELS 3 Zrotation Yrotation Xrotation
			JOINT Chest2
			{
				OFFSET 0.00315 2.01402 -0.18659
				CHANNELS 3 Zrotation Yrotation Xrotation
				JOINT lowerneck
				{
					OFFSET 0 0 0
					CHANNELS 3 Zrotation Yrotation Xrotation
					JOINT Neck
					{
						OFFSET -0.15348 1.85288 0.32547
						CHANNELS 3 Zrotation Yrotation Xrotation
						JOINT Head
						{
							OFFSET 0.23013 1.84255 -0.51894
							CHANNELS 3 Zrotation Yrotation Xrotation
							End Site
							{
								OFFSET 0.08244 1.94374 -0.22179
							}
						}
					}
				}
				JOINT LeftCollar
				{
					OFFSET 0 0 0
					CHANNELS 3 Zrotation Yrotation Xrotation
					JOINT LeftShoulder
					{
						OFFSET 3.63468 1.26528 -0.10015
CHANNELS 3 Zrotation Xrotation Yrotation
						JOINT LeftElbow
						{
OFFSET 0 -5.535930 -0.000000
CHANNELS 3 Zrotation Xrotation Yrotation
							JOINT LeftWrist
							{
OFFSET 0 -3.133450 0.000000
CHANNELS 3 Zrotation Xrotation Yrotation
								JOINT lhand
								{
									OFFSET 0 0 0
CHANNELS 3 Zrotation Xrotation Yrotation
									JOINT LFingers
									{
OFFSET 0 -0.713370 0.000000
CHANNELS 3 Zrotation Xrotation Yrotation
										End Site
										{
OFFSET 0 -0.575140 0.000000
										}
									}
								}
								JOINT LThumb
								{
OFFSET 0 0.000000 0.000000
CHANNELS 3 Zrotation Xrotation Yrotation
									End Site
									{
OFFSET 0 -0.583920 0.583920
									}
								}
							}
						}
					}
				}
				JOINT RightCollar
				{
					OFFSET 0 0 0
					CHANNELS 3 Zrotation Yrotation Xrotation
					JOINT RightShoulder
					{
						OFFSET -3.31009 1.23247 0.08205
CHANNELS 3 Zrotation Xrotation Yrotation
						JOINT RightElbow
						{
OFFSET 0 -5.468500 0.000000
CHANNELS 3 Zrotation Xrotation Yrotation
							JOINT RightWrist
							{
OFFSET 0 -3.224110 -0.000000
CHANNELS 3 Zrotation Xrotation Yrotation
								JOINT rhand
								{
									OFFSET 0 0 0
CHANNELS 3 Zrotation Xrotation Yrotation
									JOINT RFingers
									{
OFFSET 0 -0.745280 0.000000
CHANNELS 3 Zrotation Xrotation Yrotation
										End Site
										{
OFFSET 0 -0.600860 0.000000
										}
									}
								}
								JOINT RThumb
								{
OFFSET 0 0.000000 0.000000
CHANNELS 3 Zrotation Xrotation Yrotation
									End Site
									{
OFFSET 0 -0.610040 0.610040
									}
								}
							}
						}
					}
				}
			}
		}
	}
}
MOTION
Frames: 7
Frame Time: 0.008333333333333333
16.384775 16.249825 17.669049 -0.312995 -6.492364 -1435.922955 0.000000 0.000000 0.000000 -10.861808 -17.415763 -28.968282 1.669559 8.140595 23.141998 0.188483 -5.053986 -7.926913 0.210930 -2.951887 -8.145258 0.000000 0.000000 0.000000 25.958060 4.892308 3.573581 -2.090339 -9.050337 25.953996 0.430692 12.963045 -1.538743 -0.151650 2.470935 -6.810866 2.836305 -1.864263 0.076012 1.038305 -2.510183 1.091616 -0.541991 -1.234280 1.001151 -24.728261 -18.112108 0.170200 20.965557 -26.333589 7.795230 7.447780 -12.925779 8.554463 0.000000 0.000000 0.000000 2.433903 23.480534 -8.844916 8.435230 -14.255753 1.056878 0.979018 19.892297 -33.606840 0.000000 0.000000 0.000000 -7.125000 0.000000 0.000000 -36.108607 59.770612 14.120509 0.000000 0.000000 0.000000 -13.564748 8.385498 53.987554 -55.630363 -55.028413 -30.731914 -22.032174 -34.463660 -24.543414 0.000000 0.000000 0.000000 7.125000 0.000000 0.000000 4.521171 3.824431 4.222759
16.567477 16.153754 19.734934 6.834619 -16.639146 -1441.900551 0.000000 0.000000 0.000000 -22.466302 -4.201210 -21.535802 2.233428 9.336217 26.852867 -0.027317 -3.580266 -0.882697 0.009032 0.532420 1.463136 0.000000 0.000000 0.000000 13.890143 2.184578 -12.146177 -11.091725 -17.974208 63.072516 -0.440904 -3.630800 11.892786 -0.078611 -1.762813 4.851689 -4.809934 -1.209532 3.304915 -1.462567 -1.761474 1.703599 1.247104 -0.907535 -0.001519 -24.982694 -17.486193 0.873923 21.248955 -25.493771 6.708610 7.852802 -12.597537 7.965224 0.000000 0.000000 0.000000 4.354962 15.511459 -8.138153 8.100475 -13.715491 0.975973 9.234348 29.441430 -31.498646 0.000000 0.000000 0.000000 -7.125000 0.000000 0.000000 -25.889664 59.901124 9.809907 0.000000 0.000000 0.000000 -10.320903 10.383461 50.649158 -39.603556 -47.828557 -18.146297 -21.367594 -23.544300 -20.733655 0.000000 0.000000 0.000000 7.125000 0.000000 0.000000 4.574601 7.916997 3.913671
16.430804 16.456170 21.322113 6.879514 -23.931209 -1443.107429 0.000000 0.000000 0.000000 -24.114355 0.180853 -10.442219 1.388492 7.455346 21.071449 0.273348 -2.955480 -9.297904 0.000306 0.111743 0.306910 0.000000 0.000000 0.000000 15.201797 1.253802 -31.536499 -15.564129 -19.521532 76.930401 0.364681 -11.042968 -0.859578 -0.092011 1.953311 -5.376833 -5.127043 -1.945058 3.431573 -1.356247 -2.753717 1.908863 1.558294 -1.415314 0.216430 -24.443662 -16.100803 -2.150546 19.391513 -23.022720 9.646291 7.472021 -11.273236 8.516479 0.000000 0.000000 0.000000 7.404003 4.016243 -18.242066 12.140161 -20.014268 2.150150 24.457957 21.571933 -28.024787 0.000000 0.000000 0.000000 -7.125000 0.000000 0.000000 -7.046530 60.158738 2.613605 0.000000 0.000000 0.000000 -9.378368 11.221935 48.837384 -29.091027 -40.101318 -10.819293 -20.095199 -22.380917 -18.717395 0.000000 0.000000 0.000000 7.125000 0.000000 0.000000 5.248343 10.207145 4.253891
16.017602 16.357931 22.673087 7.297684 -27.443557 -1442.432855 0.000000 0.000000 0.000000 -25.908750 -1.017689 -3.551674 1.243353 7.068466 19.919156 1.074398 -3.024684 -18.815072 0.004274 0.344388 0.946281 0.000000 0.000000 0.000000 13.999188 0.972670 -38.974274 -8.732208 -16.629601 55.155171 -0.098191 -5.914043 -10.755889 -0.000185 0.009508 -0.026226 -5.531036 -2.866881 3.066925 -1.169507 -3.983250 1.475302 1.993140 -2.022231 0.096227 -20.767818 -14.818519 -8.713460 15.725214 -20.592179 16.957419 5.799612 -9.774159 10.743391 0.000000 0.000000 0.000000 13.431835 -4.507502 -39.970877 20.548409 -31.296513 5.814021 20.511355 0.308323 -30.892055 0.000000 0.000000 0.000000 -7.125000 0.000000 0.000000 -13.286008 62.065091 5.571664 0.000000 0.000000 0.000000 -9.644686 13.397125 44.477574 -26.120823 -37.327381 -8.960964 -20.317006 -23.594175 -19.748906 0.000000 0.000000 0.000000 7.125000 0.000000 0.000000 5.173427 9.100196 4.308079
15.147003 16.178487 23.935869 10.499924 -30.881059 -1443.471619 0.000000 0.000000 0.000000 -28.886462 1.793628 7.807441 0.327181 3.674726 10.163430 1.597186 -1.108484 -23.577896 0.056553 -1.533576 -4.218318 0.000000 0.000000 0.000000 5.636541 13.809275 -33.153277 -2.481146 -9.802682 28.340766 -0.975861 -15.721986 -30.102760 -0.209074 -2.942667 8.119232 -8.193325 -2.657739 1.019034 -1.578568 -3.607979 0.826730 2.948843 -1.852667 0.687198 -18.893558 -12.066666 -12.386285 13.466049 -17.264212 26.833859 5.406649 -8.181853 14.181880 0.000000 0.000000 0.000000 14.138922 -13.315321 -42.477273 21.437286 -32.335191 6.282252 22.431932 1.092599 -29.452737 0.000000 0.000000 0.000000 -7.125000 0.000000 0.000000 -10.148409 61.116319 4.008086 0.000000 0.000000 0.000000 -9.790835 15.994089 40.800076 -23.535126 -34.668516 -7.440536 -17.979581 -21.380808 -21.257589 0.000000 0.000000 0.000000 7.125000 0.000000 0.000000 6.770763 7.862294 5.822663
13.782715 16.024626 25.146634 11.175333 -35.043009 -1444.008548 0.000000 0.000000 0.000000 -26.191727 7.350880 13.809382 0.261160 3.286681 9.078014 1.083111 0.741674 -19.945806 0.553452 -4.765189 -13.240033 0.000000 0.000000 0.000000 5.606407 22.942155 -26.757972 -1.774529 -8.379541 23.873109 -4.299114 -20.840683 -49.804326 -2.012659 -8.892427 25.459331 -7.650267 -2.582179 -1.005554 -1.486157 -3.319329 0.601134 2.654665 -1.727765 1.532305 -15.690943 -9.260152 -17.199361 11.156461 -13.545415 34.488212 4.860126 -6.413687 17.592387 0.000000 0.000000 0.000000 12.628336 -13.257741 -37.331622 19.600644 -30.158192 5.329272 22.402652 2.276551 -29.617769 0.000000 0.000000 0.000000 -7.125000 0.000000 0.000000 -10.285979 61.274737 4.104450 0.000000 0.000000 0.000000 -8.669620 15.703028 38.358935 -21.803415 -32.754172 -6.479175 -16.032462 -16.745933 -19.762601 0.000000 0.000000 0.000000 7.125000 0.000000 0.000000 7.938454 9.639010 6.562173
11.848766 16.211188 26.406010 4.115257 -39.207686 -1441.091352 0.000000 0.000000 0.000000 -13.494861 12.926330 4.270811 3.512044 11.468350 33.891685 -0.418060 11.391626 -4.983715 0.017657 -0.846615 -2.326870 0.000000 0.000000 0.000000 20.192986 13.258071 -18.225434 -1.358425 -7.376095 20.835074 -1.291237 -20.691800 -37.015653 -1.998264 -8.858900 25.357392 -0.187910 -2.244574 -3.493491 0.078947 -2.987585 0.802650 0.010975 -1.492878 2.795132 -11.899457 -6.504819 -19.326827 8.399676 -9.955636 39.330863 3.893899 -4.853480 19.621271 0.000000 0.000000 0.000000 10.629554 -4.304707 -33.852035 16.509466 -26.206142 3.868401 17.110824 7.245986 -30.549777 0.000000 0.000000 0.000000 -7.125000 0.000000 0.000000 -16.809467 60.890530 6.616724 0.000000 0.000000 0.000000 -8.919077 16.725938 39.283883 -23.445602 -34.572534 -7.389641 -15.944818 -18.829959 -19.455220 0.000000 0.000000 0.000000 7.125000 0.000000 0.000000 7.982427 9.962319 6.546562
